inDegrees=yes
name=ik_lifting_orientations
DataType=double
version=3
OpenSimVersion=4.5-2024-01-10-34fd6af
endheader
time	pelvis_tilt	pelvis_list	pelvis_rotation	pelvis_tx	pelvis_ty	pelvis_tz	hip_flexion_r	hip_adduction_r	hip_rotation_r	knee_angle_r	knee_angle_r_beta	ankle_angle_r	subtalar_angle_r	mtp_angle_r	hip_flexion_l	hip_adduction_l	hip_rotation_l	knee_angle_l	knee_angle_l_beta	ankle_angle_l	subtalar_angle_l	mtp_angle_l	lumbar_extension	lumbar_bending	lumbar_rotation	arm_flex_r	arm_add_r	arm_rot_r	elbow_flex_r	pro_sup_r	wrist_flex_r	wrist_dev_r	arm_flex_l	arm_add_l	arm_rot_l	elbow_flex_l	pro_sup_l	wrist_flex_l	wrist_dev_l
1.18	-5.887518518268409	1.57278961731143	-19.09831353577792	0	0.9399999999597537	0	44.91397045048713	-10.00855145008851	0	59.98838398230772	1.046994813441898	-4.998590533836382	0	0	44.91397045048713	-10.00855145008851	0	59.98838398230772	1.046994813441898	-4.998590533836382	0	0	6.393421563523742	5.042586155349322	-3.959148921371953	5.616686807717168	20.16903181877787	9.710287929336834	36.03859835763181	45.04502838353555	0	0	0	-13.73536115276182	0	74.92153008626359	45.0450283835109	0	0
1.19	-5.620356640573728	1.376802070201554	-19.01918393949675	0	0.9399999999597537	0	44.91399347027677	-10.00854345607484	0	59.98838645173735	1.046994856541575	-4.998592252336873	0	0	44.91399347027677	-10.00854345607484	0	59.98838645173735	1.046994856541575	-4.998592252336873	0	0	6.105330446767621	5.138090835494956	-4.076711578189228	5.561144305088924	20.10571273556036	10.04317943623967	37.13526332471195	45.04499508650672	0	0	0	-13.7355344256756	0	74.92155113016703	45.04499508648207	0	0
1.2	-5.351310678455728	1.18312933337003	-18.95156358573923	0	0.9399999999597537	0	44.91401689087311	-10.00853531998295	0	59.9883889622218	1.046994900357795	-4.998594001223711	0	0	44.91401689087311	-10.00853531998295	0	59.9883889622218	1.046994900357795	-4.998594001223711	0	0	5.79898031891998	5.225744326966074	-4.159846736058025	5.359837148567919	20.5986505028824	10.34711872482649	38.21456327862266	45.04496119712771	0	0	0	-13.73571063357327	0	74.92157254047417	45.04496119710308	0	0
1.21	-4.857996532637056	0.418657586300432	-18.49354971888727	0	0.9399999999597537	0	44.91405726230142	-10.00852128591107	0	59.98839328438707	1.04699497579381	-4.998597017621864	0	0	44.91405726230142	-10.00852128591107	0	59.98839328438707	1.04699497579381	-4.998597017621864	0	0	6.475675538250504	6.193218375598306	-4.773662373185084	4.064844366616633	19.91799517270223	10.70008841412746	39.48577101831378	45.04490274121809	0	0	0	-13.73601414614948	0	74.9216094466512	45.0449027411935	0	0
1.22	-4.856655144879161	0.4245965906391048	-18.49786406066881	0	0.9399999999597537	0	44.91527114964035	-10.00823287606594	0	59.98855726789024	1.046997837845859	-4.998653706591681	0	0	44.91527114964035	-10.00823287606594	0	59.98855726789024	1.046997837845859	-4.998653706591681	0	0	6.483276983547137	6.184249056462694	-4.790590468516045	3.051815401381185	19.44834886074297	11.63668831705292	42.74716182548337	45.04360590143785	0	0	0	-13.74685639608495	0	74.9227191424324	45.04360590141394	0	0
1.23	-4.830741652903328	0.4248580388219725	-18.50266401630664	0	0.9399999999597537	0	44.91529621819822	-10.00822435202422	0	59.98855995447703	1.046997884735644	-4.998655525196251	0	0	44.91529621819822	-10.00822435202422	0	59.98855995447703	1.046997884735644	-4.998655525196251	0	0	6.44281983843868	6.171295206626341	-4.751684696717056	3.179615767229334	18.99495692364964	12.16064983120808	43.9685057911863	45.04357019826008	0	0	0	-13.74704606091615	0	74.92274205925088	45.0435701982362	0	0
1.24	-4.823326133409798	0.4302816603514654	-18.51013013620766	0	0.9399999999597537	0	44.91532108319133	-10.00821590808099	0	59.98856262051675	1.046997931266815	-4.998657325938309	0	0	44.91532108319133	-10.00821590808099	0	59.98856262051675	1.046997931266815	-4.998657325938309	0	0	6.422163821152872	6.157526896345853	-4.732640113669692	3.115240030151392	19.07486276294218	12.67024050911247	45.84593721838242	45.04353481933171	0	0	0	-13.74723426817715	0	74.92276478997745	45.04353481930784	0	0
1.25	-3.754750005271405	0.4472977346925423	-18.82063767152546	0	0.9399999999597537	0	44.91536518841266	-10.008201036082	0	59.98856737152062	1.046998014187475	-4.998660492138201	0	0	44.91536518841266	-10.008201036082	0	59.98856737152062	1.046998014187475	-4.998660492138201	0	0	6.755485168079907	6.30068902897055	-4.498833353776722	0.3070141638619208	17.88353840151697	13.1975984284626	48.55816953536649	45.04347241930279	0	0	0	-13.74756927202632	0	74.92280510946392	45.04347241927893	0	0
1.26	-3.7446036704851	0.4433335913612294	-18.82844829632523	0	0.9399999999597537	0	44.91540057541049	-10.00818916801629	0	59.98857119759903	1.046998080965141	-4.998663015682376	0	0	44.91540057541049	-10.00818916801629	0	59.98857119759903	1.046998080965141	-4.998663015682376	0	0	6.008472559336511	6.788729720662493	-5.068254375465807	0.4826380442983101	16.7357009544099	14.73810827984985	50.92804865122142	45.0434225709934	0	0	0	-13.74783880970478	0	74.92283745904902	45.04342257096959	0	0
1.27	-3.739277602115374	0.4545499333131999	-18.83146911857014	0	0.9399999999597537	0	44.91542880475495	-10.00817960186739	0	59.98857422283873	1.046998133765534	-4.998665053448939	0	0	44.91542880475495	-10.00817960186739	0	59.98857422283873	1.046998133765534	-4.998665053448939	0	0	6.013064191099256	6.77530221730659	-5.063966599766121	0.2633655935899775	17.14475011818854	15.11517481987561	52.07005927355239	45.04338246087858	0	0	0	-13.74805249468024	0	74.92286326535063	45.04338246085478	0	0
1.28	-2.631607278541324	0.4637349690946531	-19.16520835259244	0	0.9399999999597537	0	44.91546483357899	-10.00816742725498	0	59.98857808997801	1.046998201259847	-4.998667644849132	0	0	44.91546483357899	-10.00816742725498	0	59.98857808997801	1.046998201259847	-4.998667644849132	0	0	5.623438679943694	6.677035236150478	-4.74708684801529	-1.04546036759365	16.07700594876972	15.84191129026118	54.94146031615249	45.04333138225189	0	0	0	-13.74832555973832	0	74.92289620167018	45.04333138222812	0	0
1.29	-2.63392274047132	0.4709060465659824	-19.15311201659512	0	0.9399999999597537	0	44.91600191636201	-10.00804122794195	0	59.9886507276392	1.046999469026196	-4.998692386001764	0	0	44.91600191636201	-10.00804122794195	0	59.9886507276392	1.046999469026196	-4.998692386001764	0	0	6.313504262601719	6.908003421731024	-4.81180033709495	-2.294630472456874	14.80025901387879	16.83835063259466	58.98647815450312	45.04276263660359	0	0	0	-13.75314400920112	0	74.92338718506051	45.04276263658017	0	0
1.3	-2.634579278966256	0.4646615315538706	-19.15348087582008	0	0.9399999999597537	0	44.91604157097102	-10.00802812112203	0	59.98865502484388	1.046999544026566	-4.998695159317561	0	0	44.91604157097102	-10.00802812112203	0	59.98865502484388	1.046999544026566	-4.998695159317561	0	0	6.323717386399218	6.916648527531601	-4.813431745170312	-3.18554761883588	14.21325231816895	17.26029337124149	61.66164257568668	45.04270738385016	0	0	0	-13.75344741179974	0	74.92342343595149	45.04270738382678	0	0
1.31	-2.593854911557892	0.4773968130158511	-19.17382315382929	0	0.9399999999597537	0	44.91606308784949	-10.00802095253879	0	59.98865734031271	1.046999584439121	-4.99869667815343	0	0	44.91606308784949	-10.00802095253879	0	59.98865734031271	1.046999584439121	-4.99869667815343	0	0	6.057284059281823	6.471084422070399	-4.453384459861164	-3.408541962108509	13.98286545678728	17.79914107302456	63.71212822663265	45.0426772033711	0	0	0	-13.75361123866372	0	74.92344310594717	45.04267720334771	0	0
1.32	-1.482437097210209	0.4833999945431168	-19.51498044350625	0	0.9399999999597537	0	44.91609345361478	-10.0080109158195	0	59.98866062648482	1.046999641793644	-4.998698800937569	0	0	44.91609345361478	-10.0080109158195	0	59.98866062648482	1.046999641793644	-4.998698800937569	0	0	4.814810353700829	5.724370709791773	-3.790718619042137	-4.07243118207738	13.70490441398519	18.0480502656693	66.79923317412398	45.04263488365618	0	0	0	-13.75384340070724	0	74.92347086529394	45.04263488363284	0	0
1.33	-1.49612581469492	0.4823650320208617	-19.50051287153613	0	0.9399999999597537	0	44.91613366247031	-10.00799759052756	0	59.9886649652448	1.046999717519292	-4.998701619966067	0	0	44.91613366247031	-10.00799759052756	0	59.9886649652448	1.046999717519292	-4.998701619966067	0	0	4.847040987387524	5.74240549555155	-3.818812000531583	-5.249845456980581	11.94530405489909	18.85633646818522	70.44178776693278	45.04257871661268	0	0	0	-13.75415022410131	0	74.92350762285773	45.04257871658934	0	0
1.34	-1.485911629558152	0.4817336846420961	-19.49826982594364	0	0.9399999999597537	0	44.91617912901407	-10.00798242091712	0	59.98866984143078	1.046999802624792	-4.998704832585598	0	0	44.91617912901407	-10.00798242091712	0	59.98866984143078	1.046999802624792	-4.998704832585598	0	0	6.225898334572161	6.222280246979281	-3.896918109343193	-7.31688661914936	10.102625742365	19.44835904615468	73.8763238102613	45.04251484427294	0	0	0	-13.75449570862678	0	74.92354918681924	45.04251484424963	0	0
1.35	-1.508902407734771	0.4730633437815664	-19.4912267604524	0	0.9399999999597537	0	44.9162204079744	-10.00796877455653	0	59.98867429667478	1.046999880383469	-4.998707716525944	0	0	44.9162204079744	-10.00796877455653	0	59.98867429667478	1.046999880383469	-4.998707716525944	0	0	6.247642805460201	6.235593366743244	-3.905366619038693	-8.074809543069756	9.302041823686718	19.87418755178513	77.02425425700517	45.04245728269719	0	0	0	-13.75481085537808	0	74.9235869226363	45.04245728267389	0	0
1.36	-0.3163061016455662	0.4858664056858876	-19.85542934586345	0	0.9399999999597537	0	44.91636548484792	-10.00792105023368	0	59.98868993775952	1.047000153371896	-4.998717776913599	0	0	44.91636548484792	-10.00792105023368	0	59.98868993775952	1.047000153371896	-4.998717776913599	0	0	5.094954636771846	5.862602688427671	-3.513828877965787	-9.94387047972435	6.813452651521996	20.41417609357035	81.71866611552356	45.04225563532532	0	0	0	-13.75591819485007	0	74.92371954696475	45.04225563530213	0	0
1.37	-0.3122175711626528	0.4848259136017201	-19.8582001867333	0	0.9399999999597537	0	44.91639781416215	-10.00791039552528	0	59.98869342224774	1.047000214187688	-4.998720024470892	0	0	44.91639781416215	-10.00791039552528	0	59.98869342224774	1.047000214187688	-4.998720024470892	0	0	4.718267854460133	5.017962334223395	-2.86103626846454	-10.25338992574508	6.324489249720292	20.58579616130356	85.31235666411573	45.04221064026848	0	0	0	-13.7561649504685	0	74.92374910132087	45.0422106402453	0	0
